{"accessors" : [{"bufferView" : 0, "byteOffset" : 0, "componentType" : 5123, "count" : 5916, "type" : "SCALAR", "max" : [4946], "min" : [0]}, {"bufferView" : 1, "byteOffset" : 0, "componentType" : 5126, "count" : 4947, "type" : "VEC3", "max" : [647.5872802734375, 368.62762451171875, -0], "min" : [-647.5872802734375, -413.8157653808594, -5], "name" : "POSITION"}, {"bufferView" : 1, "byteOffset" : 12, "componentType" : 5126, "count" : 4947, "type" : "VEC3", "max" : [1.0000032186508179, 0.9998801946640015, 1.0000044107437134], "min" : [-1.0000044107437134, -1.0000044107437134, -1.0000044107437134], "name" : "NORMAL"}, {"bufferView" : 0, "byteOffset" : 11832, "componentType" : 5123, "count" : 1692, "type" : "SCALAR", "max" : [1414], "min" : [0]}, {"bufferView" : 2, "byteOffset" : 0, "componentType" : 5126, "count" : 1415, "type" : "VEC3", "max" : [522.8297119140625, 413.8157043457031, -0], "min" : [-629.4525146484375, -413.8157653808594, -3], "name" : "POSITION"}, {"bufferView" : 2, "byteOffset" : 12, "componentType" : 5126, "count" : 1415, "type" : "VEC3", "max" : [0.9997686743736267, 0.9998194575309753, 1.0000044107437134], "min" : [-0.9956328272819519, -1.0000044107437134, -1.0000044107437134], "name" : "NORMAL"}, {"bufferView" : 0, "byteOffset" : 15216, "componentType" : 5123, "count" : 11715, "type" : "SCALAR", "max" : [9852], "min" : [0]}, {"bufferView" : 3, "byteOffset" : 0, "componentType" : 5126, "count" : 9853, "type" : "VEC3", "max" : [390.5141906738281, 318.9092102050781, -4.999996185302734], "min" : [-647.5872802734375, -413.8157653808594, -145], "name" : "POSITION"}, {"bufferView" : 3, "byteOffset" : 12, "componentType" : 5126, "count" : 9853, "type" : "VEC3", "max" : [0.9990718960762024, 0.9998636841773987, 1.0000044107437134], "min" : [-1.0000044107437134, -1.0000044107437134, -1.0000044107437134], "name" : "NORMAL"}, {"bufferView" : 0, "byteOffset" : 38648, "componentType" : 5123, "count" : 12654, "type" : "SCALAR", "max" : [10581], "min" : [0]}, {"bufferView" : 4, "byteOffset" : 0, "componentType" : 5126, "count" : 10582, "type" : "VEC3", "max" : [431.0919494628906, 332.6824645996094, -0], "min" : [-647.5872802734375, -413.81585693359375, -5], "name" : "POSITION"}, {"bufferView" : 4, "byteOffset" : 12, "componentType" : 5126, "count" : 10582, "type" : "VEC3", "max" : [1.000001311302185, 1.0000011920928955, 1.0000044107437134], "min" : [-1.0000044107437134, -1.0000044107437134, -1.0000044107437134], "name" : "NORMAL"}, {"bufferView" : 0, "byteOffset" : 63956, "componentType" : 5123, "count" : 16038, "type" : "SCALAR", "max" : [12490], "min" : [0]}, {"bufferView" : 5, "byteOffset" : 0, "componentType" : 5126, "count" : 12491, "type" : "VEC3", "max" : [206.4302978515625, 348.73858642578125, -0], "min" : [-647.5873413085938, -413.81573486328125, -5], "name" : "POSITION"}, {"bufferView" : 5, "byteOffset" : 12, "componentType" : 5126, "count" : 12491, "type" : "VEC3", "max" : [1.0000039339065552, 1.0000044107437134, 1.0000044107437134], "min" : [-1.0000044107437134, -1.0000044107437134, -1.0000044107437134], "name" : "NORMAL"}], "asset" : {"generator" : "Aspose.3D 22.10", "version" : "2.0"}, "buffers" : [{"uri" : "data:application/octet-stream;base64,", "byteLength" : 1248416}], "bufferViews" : [{"buffer" : 0, "byteOffset" : 0, "byteLength" : 96032, "target" : 34963}, {"buffer" : 0, "byteOffset" : 96036, "byteLength" : 141984, "byteStride" : 24, "target" : 34962}, {"buffer" : 0, "byteOffset" : 238024, "byteLength" : 40608, "byteStride" : 24, "target" : 34962}, {"buffer" : 0, "byteOffset" : 278636, "byteLength" : 281160, "byteStride" : 24, "target" : 34962}, {"buffer" : 0, "byteOffset" : 559800, "byteLength" : 303696, "byteStride" : 24, "target" : 34962}, {"buffer" : 0, "byteOffset" : 863500, "byteLength" : 384912, "byteStride" : 24, "target" : 34962}], "materials" : [{"name" : "CityEngineMaterial_1_mat", "pbrMetallicRoughness" : {"baseColorFactor" : [0.6000000238418579, 0.6745098233222961, 0.25882354378700256, 1], "metallicFactor" : 0, "roughnessFactor" : 0.5527864098548889}, "emissiveFactor" : [0, 0, 0], "alphaMode" : "OPAQUE", "doubleSided" : true}, {"name" : "CityEngineMaterial_2_mat", "pbrMetallicRoughness" : {"baseColorFactor" : [0.6196078658103943, 0.7098039388656616, 0.7882353067398071, 1], "metallicFactor" : 0, "roughnessFactor" : 0.5527864098548889}, "emissiveFactor" : [0, 0, 0], "alphaMode" : "OPAQUE", "doubleSided" : true}, {"name" : "CityEngineMaterial_4_mat", "pbrMetallicRoughness" : {"baseColorFactor" : [1, 1, 1, 1], "metallicFactor" : 0, "roughnessFactor" : 0.5527864098548889}, "emissiveFactor" : [0, 0, 0], "alphaMode" : "OPAQUE", "doubleSided" : true}, {"name" : "CityEngineMaterial_mat", "pbrMetallicRoughness" : {"baseColorFactor" : [0.7921568751335144, 0.7803921699523926, 0.7607843279838562, 1], "metallicFactor" : 0, "roughnessFactor" : 0.5527864098548889}, "emissiveFactor" : [0, 0, 0], "alphaMode" : "OPAQUE", "doubleSided" : true}, {"name" : "CityEngineMaterial_3_mat", "pbrMetallicRoughness" : {"baseColorFactor" : [0.6901960968971252, 0.686274528503418, 0.7058823704719543, 1], "metallicFactor" : 0, "roughnessFactor" : 0.5527864098548889}, "emissiveFactor" : [0, 0, 0], "alphaMode" : "OPAQUE", "doubleSided" : true}], "meshes" : [{"primitives" : [{"attributes" : {"POSITION" : 1, "NORMAL" : 2}, "indices" : 0, "material" : 0, "mode" : 4}]}, {"primitives" : [{"attributes" : {"POSITION" : 4, "NORMAL" : 5}, "indices" : 3, "material" : 1, "mode" : 4}]}, {"primitives" : [{"attributes" : {"POSITION" : 7, "NORMAL" : 8}, "indices" : 6, "material" : 2, "mode" : 4}]}, {"primitives" : [{"attributes" : {"POSITION" : 10, "NORMAL" : 11}, "indices" : 9, "material" : 3, "mode" : 4}]}, {"primitives" : [{"attributes" : {"POSITION" : 13, "NORMAL" : 14}, "indices" : 12, "material" : 4, "mode" : 4}]}], "nodes" : [{"mesh" : 0, "name" : "CityEngineMaterial_1_m"}, {"mesh" : 1, "name" : "CityEngineMaterial_2_m"}, {"mesh" : 2, "name" : "CityEngineMaterial_4_m"}, {"mesh" : 3, "name" : "CityEngineMaterial_m"}, {"children" : [0, 1, 2, 3], "matrix" : [1, 0, 0, 0, 0, -1.3435885648505064E-07, 0.9999999657714511, 0, 0, -0.9999999657714511, -1.3435885648505064E-07, 0, 0, 0, 0, 1], "name" : "node"}, {"mesh" : 4, "name" : "CityEngineMaterial_3_m"}, {"children" : [5], "matrix" : [1, 0, 0, 0, 0, -1.3435885648505064E-07, 0.9999999657714511, 0, 0, -0.9999999657714511, -1.3435885648505064E-07, 0, 0, 0, 0, 1], "name" : "Road."}], "scene" : 0, "scenes" : [{"nodes" : [4, 6]}]}