{"accessors" : [{"bufferView" : 0, "byteOffset" : 0, "componentType" : 5125, "count" : 129744, "type" : "SCALAR", "max" : [129743], "min" : [0]}, {"bufferView" : 1, "byteOffset" : 0, "componentType" : 5126, "count" : 129744, "type" : "VEC3", "max" : [497.4295959472656, 150.5, 590.0927734375], "min" : [-497.42962646484375, 0, -590.0927734375], "name" : "POSITION"}, {"bufferView" : 0, "byteOffset" : 518976, "componentType" : 5123, "count" : 228, "type" : "SCALAR", "max" : [227], "min" : [0]}, {"bufferView" : 2, "byteOffset" : 0, "componentType" : 5126, "count" : 228, "type" : "VEC3", "max" : [453.9725646972656, 0, -368.8946533203125], "min" : [201.46876525878906, 0, -459.39666748046875], "name" : "POSITION"}, {"bufferView" : 0, "byteOffset" : 519432, "componentType" : 5123, "count" : 663, "type" : "SCALAR", "max" : [662], "min" : [0]}, {"bufferView" : 3, "byteOffset" : 0, "componentType" : 5126, "count" : 663, "type" : "VEC3", "max" : [486.3612060546875, 7, -271.2752380371094], "min" : [109.46389770507812, 6.9999918937683105, -469.0131530761719], "name" : "POSITION"}], "asset" : {"generator" : "Aspose.3D 22.10", "version" : "2.0"}, "buffers" : [{"uri" : "data:application/octet-stream;base64,", "byteLength" : 2088396}], "bufferViews" : [{"buffer" : 0, "byteOffset" : 0, "byteLength" : 520760, "target" : 34963}, {"buffer" : 0, "byteOffset" : 520764, "byteLength" : 1556928, "byteStride" : 12, "target" : 34962}, {"buffer" : 0, "byteOffset" : 2077696, "byteLength" : 2736, "byteStride" : 12, "target" : 34962}, {"buffer" : 0, "byteOffset" : 2080436, "byteLength" : 7956, "byteStride" : 12, "target" : 34962}], "materials" : [{"name" : "CityEngineMaterial", "pbrMetallicRoughness" : {"baseColorFactor" : [1, 1, 1, 1], "metallicFactor" : 0, "roughnessFactor" : 1}, "emissiveFactor" : [0, 0, 0], "alphaMode" : "OPAQUE", "doubleSided" : true}, {"name" : "CityEngineMaterial_2", "pbrMetallicRoughness" : {"baseColorFactor" : [1, 0, 0, 1], "metallicFactor" : 0, "roughnessFactor" : 1}, "emissiveFactor" : [0, 0, 0], "alphaMode" : "OPAQUE", "doubleSided" : true}, {"name" : "CityEngineMaterial_1", "pbrMetallicRoughness" : {"baseColorFactor" : [0.6000000238418579, 0.6745098233222961, 0.25882354378700256, 1], "metallicFactor" : 0, "roughnessFactor" : 1}, "emissiveFactor" : [0, 0, 0], "alphaMode" : "OPAQUE", "doubleSided" : true}], "meshes" : [{"primitives" : [{"attributes" : {"POSITION" : 1}, "indices" : 0, "material" : 0, "mode" : 4}]}, {"primitives" : [{"attributes" : {"POSITION" : 3}, "indices" : 2, "material" : 1, "mode" : 4}]}, {"primitives" : [{"attributes" : {"POSITION" : 5}, "indices" : 4, "material" : 2, "mode" : 4}]}], "nodes" : [{"mesh" : 0, "name" : "Node #1"}, {"children" : [0], "name" : "Node #0"}, {"mesh" : 1, "name" : "Node #3"}, {"children" : [2], "name" : "Node #2"}, {"mesh" : 2, "name" : "Node #5"}, {"children" : [4], "name" : "Node #4"}], "scene" : 0, "scenes" : [{"nodes" : [1, 3, 5]}]}